<svg xmlns="http://www.w3.org/2000/svg" version="1.1" xmlns:xlink="http://www.w3.org/1999/xlink" xmlns:svgjs="http://svgjs.com/svgjs" width="1440" height="600" preserveAspectRatio="none" viewBox="0 0 1440 600"><g mask="url(&quot;#SvgjsMask1003&quot;)" fill="none"><rect width="1440" height="600" x="0" y="0" fill="rgba(26, 26, 26, 1)"></rect><path d="M-44.56 297.55C80.5 296.19 237.21 151.23 436.29 159.55 635.36 167.87 567.02 560.41 676.71 636.6" stroke="rgba(0, 0, 0, 1)" stroke-width="2"></path><path d="M-233.94 170.84C-73.38 178.23 99.11 439.01 343.83 452.84 588.55 466.67 548.36 622.49 632.71 629.29" stroke="rgba(0, 0, 0, 1)" stroke-width="2"></path><path d="M-278.56 280.12C-132.59 282.58-21.08 459.07 275 466.12 571.08 473.17 678.24 696.85 828.56 701.68" stroke="rgba(0, 0, 0, 1)" stroke-width="2"></path><path d="M-26.26 569.6C104.63 563.73 206.99 341.19 445.64 341.6 684.29 342.01 768.98 691.38 917.54 712.71" stroke="rgba(0, 0, 0, 1)" stroke-width="2"></path><path d="M-37.69 568.43C134.4 565.41 286.16 346.21 614.01 346.43 941.87 346.65 1079.19 700.71 1265.72 713" stroke="rgba(0, 0, 0, 1)" stroke-width="2"></path></g><defs><mask id="SvgjsMask1003"><rect width="1440" height="600" fill="#ffffff"></rect></mask></defs></svg>